<svg xmlns="http://www.w3.org/2000/svg" viewBox="0 0 97.26 131.42"><defs><style>.cls-1{fill:#fff;}.cls-2{isolation:isolate;}</style></defs><title>Fichier 2</title><g id="Calque_2" data-name="Calque 2"><g id="Calque_5" data-name="Calque 5"><circle class="cls-1" cx="40.25" cy="20.77" r="2.03"/><circle class="cls-1" cx="24.74" cy="35.9" r="2.03"/><circle class="cls-1" cx="40.67" cy="51.74" r="2.03"/><circle class="cls-1" cx="55.45" cy="35.48" r="2.03"/><circle class="cls-1" cx="67.85" cy="44.4" r="3.04"/><path class="cls-1" d="M89.84,31.22A3.86,3.86,0,0,0,86,35.08a3.45,3.45,0,0,0,0,.57l-2.92.77-7.64-4.76,3.83-1A2.2,2.2,0,1,0,79,29.55a1.75,1.75,0,0,0,0,.4l-4.47,1.13-.05,0,0,.05L60.37,34.65l-.6-.6,5.28-5.34,7.35.17,6.08-5.82,2.39.05a2.42,2.42,0,1,0-.16-1.22l-2-.05.14-6.38L80,14.34a2.3,2.3,0,0,0,1,.21,2.41,2.41,0,1,0-1.93-1l-4.93,4.71.07.08a2.4,2.4,0,1,0,1.14,2A2.31,2.31,0,0,0,75,19.15l2.62-2.5-.13,5.68-5.55,5.32-7.37-.17-5.64,5.71-.45-.45,8.37-8.27a1.5,1.5,0,0,0,.72.2,1.46,1.46,0,1,0-1.46-1.46,1.41,1.41,0,0,0,.19.7L62.14,28l0-6.76a1.46,1.46,0,0,0-.63-2.77,1.45,1.45,0,0,0-.16,2.9l0,7.42-3.44,3.4-.8-.8-.58.58L53.63,19.65l0,0,5.49-8.54,3.47-.59h0a3,3,0,1,0-.47-1.61,3.26,3.26,0,0,0,.05.45l-3,.5-.6-2.38a3.85,3.85,0,1,0-1.27.22h.07l.69,2.75-4.88,7.58-.92-4a2.2,2.2,0,1,0-1,.26l.27,0L52.66,19l0,0,0,0,3.19,13.58-.32.32-5.36-5.08V20.52l-6-5.95V11.85A2.39,2.39,0,1,0,43,11.9v2.47H36.63l-1.08-1.08A2.33,2.33,0,0,0,36,12a2.4,2.4,0,1,0-2.4,2.4,2.38,2.38,0,0,0,1.07-.26l4.61,4.61a2.4,2.4,0,1,0,4.54,1.07,2.41,2.41,0,0,0-2.4-2.4,2.36,2.36,0,0,0-1.34.41l-2.19-2.2h5.68L49,21v7.37l5.72,5.41-.53.53L45.83,26a1.3,1.3,0,0,0,.12-.55,1.47,1.47,0,1,0-.61,1.18l4,4H42.25a1.47,1.47,0,1,0,.14.79h7.74l3.46,3.48-.86.86.54.54L40.91,39.55h0L32.2,34.23l-1.05-4.49a3,3,0,1,0-1.32.31H30l1,4.17L28.22,35a3.84,3.84,0,1,0,.26,1.37c0-.06,0-.12,0-.18l3.13-.86L39.29,40l-3.92,1a2.22,2.22,0,1,0,.17.86s0,0,0-.08l4.69-1.24.06,0,0-.06,13.61-3.58.3.3L49,42.69l-7.35-.08-6,5.88-2.48,0a2.4,2.4,0,1,0-2.23,3.28,2.38,2.38,0,0,0,2.36-2.06l2.14,0-.08,6.38L34.06,57.3a2.39,2.39,0,1,0,.87.85l4.94-4.82A2.27,2.27,0,0,0,41,53.6a2.4,2.4,0,1,0-2.41-2.4A2.35,2.35,0,0,0,39,52.53l-2.42,2.35.07-5.68,5.49-5.37,7.37.09,5.62-5.82.46.46-8.43,8.49a1.48,1.48,0,1,0,.63.5l4.13-4.17,0,7a1.46,1.46,0,1,0,.79,0l0-7.74,3.44-3.46,1,1,.39-.39,3.1,12.88h0l-5.48,8.57-4.38,1.1A3,3,0,0,0,48,60.57a3,3,0,1,0,3,3c0-.06,0-.11,0-.16l4-1,.61,2.45a3.85,3.85,0,1,0,1.23-.12l-.74-3L61,54.24l1,4a2.2,2.2,0,1,0,.78-.13l-1.16-4.82,0-.05,0,0L58.15,39.07l.59-.58L64,43.85l-.24,7.34,5.76,6.14L69.47,60a2.41,2.41,0,1,0,1.23-.24l.07-2.16,6.38.21,1.22,1.31a2.34,2.34,0,0,0,0,1.26,2.4,2.4,0,1,0,1.68-3,2.27,2.27,0,0,0-1,.6l-4.58-4.9a2.41,2.41,0,1,0-2,1,2.36,2.36,0,0,0,1.06-.25L76,56.52l-5.67-.18L65,50.73l.24-7.37L59.6,37.63l.45-.45,8.26,8.55a1.52,1.52,0,0,0-.17.68A1.46,1.46,0,1,0,69.6,45a1.54,1.54,0,0,0-.74.2l-4.07-4.21,6.85.11a1.47,1.47,0,1,0-.14-.79L64,40.14l-3.41-3.52.86-.87L61,35.3l12.82-3.23h0l8.63,5.38,1,4.15,1.19-.3-1-3.8,2.66-.69a3.86,3.86,0,1,0,3.44-5.6Z" transform="translate(-17.01)"/><path class="cls-1" d="M22,131.25l-2.54-4H17.88v4H17V122.4h2.36c2,0,3.15.66,3.15,2.34a2.46,2.46,0,0,1-2.17,2.33L23,131.25Zm-.38-6.45c0-1.24-1-1.64-2.29-1.64H17.88v3.36h1.56C20.76,126.52,21.65,125.9,21.65,124.8Z" transform="translate(-17.01)"/><path class="cls-1" d="M28.58,122.4h5v.77H29.45v3.12H33v.76H29.45v3.43h4.12v.77h-5Z" transform="translate(-17.01)"/><path class="cls-1" d="M43.13,123c-2.05,0-3.45,1.43-3.45,3.83,0,2.19,1,3.84,3.52,3.84a5.91,5.91,0,0,0,2.25-.4V131a6.83,6.83,0,0,1-2.37.41c-3.06,0-4.3-2-4.3-4.54,0-3.14,1.87-4.63,4.18-4.63a6.34,6.34,0,0,1,2.3.39v.79A5.59,5.59,0,0,0,43.13,123Z" transform="translate(-17.01)"/><path class="cls-1" d="M49.89,122.4h1l2.52,4.5h0l2.5-4.5h.91l-3,5.33v3.52h-.86v-3.52Z" transform="translate(-17.01)"/><path class="cls-1" d="M65.64,123c-2.06,0-3.45,1.43-3.45,3.83,0,2.19,1,3.84,3.51,3.84a5.91,5.91,0,0,0,2.25-.4V131a6.77,6.77,0,0,1-2.36.41c-3.06,0-4.31-2-4.31-4.54,0-3.14,1.87-4.63,4.19-4.63a6.42,6.42,0,0,1,2.3.39v.79A5.63,5.63,0,0,0,65.64,123Z" transform="translate(-17.01)"/><path class="cls-1" d="M73.54,122.4h.87v8.08h4.12v.77h-5Z" transform="translate(-17.01)"/><path class="cls-1" d="M90.69,131.25h-.91l-1-2.55h-4l-1,2.55H83l3.35-8.85h1Zm-5.63-3.31h3.53l-1.77-4.63Z" transform="translate(-17.01)"/><path class="cls-1" d="M100.21,123c-2.67,0-3.67,1.73-3.67,3.84,0,2.56,1.24,3.84,3.32,3.84a6.3,6.3,0,0,0,1.82-.23v-3.66h.87v4.14a7,7,0,0,1-2.81.5c-2.34,0-4.11-1.31-4.11-4.54,0-2.94,1.64-4.63,4.45-4.63a5.41,5.41,0,0,1,2.18.43v.79A4.62,4.62,0,0,0,100.21,123Z" transform="translate(-17.01)"/><path class="cls-1" d="M108.74,122.4h5v.77h-4.08v3.12h3.57v.76h-3.57v3.43h4.12v.77h-5Z" transform="translate(-17.01)"/><path class="cls-1" d="M46.41,112.78H43.85a1.4,1.4,0,0,1-1.54-.79l-5.63-10.66c-.07-.13-.15-.18-.23-.18s-.12,0-.12.18v11a.46.46,0,0,1-.49.44H33.69a.48.48,0,0,1-.51-.44v-15a1,1,0,0,1,1-.88h2.73a1.06,1.06,0,0,1,1.12.7L44,108.47c.06.11.13.17.21.17s.12-.06.12-.2V96.93a.45.45,0,0,1,.49-.42H47a.44.44,0,0,1,.48.42v15A1,1,0,0,1,46.41,112.78Z" transform="translate(-17.01)"/><path class="cls-1" d="M58,113c-4.18,0-7.22-2-7.22-6.83v-3c0-4.82,3-6.84,7.22-6.84s7.22,2,7.22,6.84v3C65.17,110.94,62.13,113,58,113Zm3.67-9.78c0-2.89-1.19-4.19-3.67-4.19s-3.68,1.3-3.68,4.19v3c0,2.89,1.19,4.19,3.68,4.19s3.67-1.3,3.67-4.19Z" transform="translate(-17.01)"/><path class="cls-1" d="M74.12,113a49.57,49.57,0,0,1-5-.26c-.43-.06-.66-.24-.66-.68V97.28c0-.44.23-.62.66-.68a49,49,0,0,1,5-.27c5.07,0,8,2.37,8,6.71v3.21C82.08,110.59,79.19,113,74.12,113ZM78.58,103c0-3.29-1.92-4.14-4.46-4.14-.94,0-1.6,0-2.13.06v11.37c.53,0,1.19.06,2.13.06,2.54,0,4.46-.85,4.46-4.14Z" transform="translate(-17.01)"/><path class="cls-1" d="M92.22,113c-4.08,0-7-1.53-7-6.19V96.93a.47.47,0,0,1,.51-.42h2.51a.46.46,0,0,1,.5.42v9.83c0,2.49.71,3.68,3.45,3.68s3.45-1.19,3.45-3.68V96.93a.46.46,0,0,1,.5-.42h2.51a.47.47,0,0,1,.51.42v9.83C99.19,111.42,96.3,113,92.22,113Z" transform="translate(-17.01)"/><path class="cls-1" d="M107.61,113a22.51,22.51,0,0,1-4.49-.39c-.25,0-.48-.2-.48-.44v-1.57a.46.46,0,0,1,.48-.42h0c1,.11,3.55.22,4.49.22,2.25,0,2.94-.7,2.94-2,0-.86-.49-1.29-2.16-2.15l-3.34-1.73c-2.36-1.2-3-2.47-3-4,0-2.41,1.62-4.17,6.33-4.17a32,32,0,0,1,4.87.4.47.47,0,0,1,.45.42v1.62a.4.4,0,0,1-.43.39h0c-1.67-.13-3.34-.22-5-.22-1.87,0-2.66.57-2.66,1.56,0,.72.43,1.16,2.08,1.94l3,1.47c2.79,1.34,3.52,2.74,3.52,4.47C114.27,110.59,112.68,113,107.61,113Z" transform="translate(-17.01)"/></g></g></svg>