<?xml version="1.0" encoding="utf-8"?>
<!-- Generator: Adobe Illustrator 23.0.2, SVG Export Plug-In . SVG Version: 6.00 Build 0)  -->
<svg version="1.1" id="Calque_1" xmlns="http://www.w3.org/2000/svg" xmlns:xlink="http://www.w3.org/1999/xlink" x="0px" y="0px"
	 viewBox="0 0 140.68 129.21" style="enable-background:new 0 0 140.68 129.21;" xml:space="preserve">
<style type="text/css">
	.st0{fill:#FFFFFF;}
</style>
<g>
	<path class="st0" d="M131.93,121.33c-0.02,0.01-0.04,0.01-0.04,0.03c-0.59,1.91-1.94,2.62-3.88,2.54c-1.71-0.07-3.43,0-5.14-0.02
		c-1.33-0.01-2.47-0.84-2.91-2.08c-0.06-0.18-0.09-0.37-0.14-0.58c0.46-0.12,0.75-0.16,0.96,0.39c0.35,0.92,1.08,1.45,2.07,1.47
		c1.98,0.03,3.96,0.04,5.94,0c1.43-0.03,2.42-1.25,2.32-2.68c-0.03-0.44-0.32-0.35-0.56-0.35c-3.34,0-6.68,0-10.02,0
		c-0.23,0-0.46,0-0.68,0c-0.49-1.81,0.96-3.81,2.85-3.87c2.08-0.06,4.17-0.06,6.26,0c1.24,0.04,2.13,0.73,2.7,1.92
		c-0.49,0.08-0.85,0.13-1.19-0.32c-0.41-0.55-1.02-0.8-1.71-0.81c-1.94-0.01-3.89-0.01-5.83,0c-1.22,0.01-2.19,0.94-2.31,2.21
		c0.11,0.02,0.22,0.06,0.34,0.06c3.59,0,7.18,0,10.76,0c0.07,0,0.14-0.02,0.21-0.02C131.93,119.92,131.93,120.62,131.93,121.33z"/>
	<path class="st0" d="M94.06,123.98c-0.02-0.03-0.04-0.07-0.07-0.08c-1.92-0.72-2.54-1.6-2.53-3.65c0-0.46,0-0.92,0.06-1.37
		c0.22-1.52,1.49-2.63,3.03-2.64c1.98-0.01,3.96,0,5.93-0.01c0.86-0.01,1.56,0.36,2.27,0.94c0-1.32,0-2.56,0-3.85
		c0.29,0,0.52,0,0.83,0c0,0.18,0,0.37,0,0.56c0,2.22,0,4.45,0,6.67c0,1.74-0.81,2.81-2.46,3.31c-0.06,0.02-0.11,0.07-0.17,0.11
		C98.66,123.98,96.36,123.98,94.06,123.98z M97.54,117.04c-0.95,0-1.91-0.01-2.86,0c-1.26,0.02-2.21,0.8-2.37,2.05
		c-0.09,0.69-0.07,1.41,0.02,2.1c0.16,1.13,1.15,1.95,2.29,1.96c1.94,0.01,3.88,0.02,5.83,0c1.28-0.01,2.3-1.07,2.32-2.34
		c0.01-0.44,0-0.88,0-1.32c-0.01-1.42-1-2.42-2.43-2.44C99.42,117.03,98.48,117.03,97.54,117.04z"/>
	<path class="st0" d="M73.69,123.98c-0.12-0.12-0.23-0.25-0.37-0.35c-2.76-1.99-5.53-3.97-8.29-5.95c-0.27-0.19-0.55-0.38-0.85-0.54
		c-0.6-0.32-1.11-0.04-1.11,0.65c-0.01,2.06,0.01,4.13,0.01,6.19c-0.28,0-0.57,0-0.85,0c0.01-2.01,0.03-4.02,0.02-6.04
		c0-0.66,0.14-1.23,0.75-1.58c0.63-0.37,1.23-0.22,1.79,0.16c1.88,1.31,3.75,2.64,5.62,3.97c1.09,0.77,2.17,1.56,3.37,2.43
		c0-2.28,0-4.45,0-6.65c0.31,0,0.53,0,0.86,0c0,2.57,0,5.14,0,7.71C74.33,123.98,74.01,123.98,73.69,123.98z"/>
	<path class="st0" d="M83.6,123.88c-0.95,0-1.91,0.01-2.86,0c-1.84-0.02-3.2-1.38-3.2-3.23c0-0.65-0.02-1.31,0.09-1.95
		c0.25-1.45,1.51-2.52,2.97-2.54c2-0.03,3.99-0.03,5.99,0c1.74,0.02,3.08,1.44,3.09,3.18c0,0.6,0.05,1.21-0.03,1.8
		c-0.22,1.61-1.5,2.71-3.13,2.73C85.55,123.89,84.58,123.88,83.6,123.88z M83.66,116.96c-0.97,0-1.94,0-2.91,0
		c-1.14,0.01-2.12,0.74-2.31,1.87c-0.12,0.74-0.14,1.52-0.04,2.26c0.15,1.13,1.07,1.94,2.17,1.96c2.03,0.04,4.06,0.05,6.09,0
		c1.25-0.03,2.19-1.09,2.21-2.33c0.01-0.46,0.01-0.92,0-1.38c-0.02-1.33-1.07-2.37-2.4-2.38C85.53,116.96,84.6,116.96,83.66,116.96z
		"/>
	<path class="st0" d="M117.06,116.17c0.25,0,0.46,0,0.69,0c0.02,0.08,0.06,0.16,0.06,0.25c0,1.54,0.03,3.07-0.02,4.61
		c-0.05,1.45-1.36,2.79-2.81,2.82c-2.15,0.05-4.31,0.04-6.46,0c-1.28-0.03-2.62-1.13-2.72-2.42c-0.14-1.73-0.03-3.48-0.03-5.26
		c0.21,0,0.45,0,0.73,0c0.01,0.22,0.03,0.41,0.03,0.6c0,1.31-0.01,2.61,0,3.92c0.01,1.3,0.94,2.33,2.23,2.36
		c2.01,0.04,4.03,0.04,6.04,0c1.22-0.03,2.16-0.99,2.2-2.21c0.05-1.34,0.02-2.68,0.03-4.03
		C117.03,116.61,117.05,116.4,117.06,116.17z"/>
</g>
<g>
	<circle class="st0" cx="70.48" cy="24.88" r="2.03"/>
	<circle class="st0" cx="54.98" cy="40.01" r="2.03"/>
	<circle class="st0" cx="70.9" cy="55.85" r="2.03"/>
	<circle class="st0" cx="85.68" cy="39.59" r="2.03"/>
	<circle class="st0" cx="98.08" cy="48.51" r="3.04"/>
	<path class="st0" d="M103.07,35.33c-2.13,0-3.86,1.73-3.86,3.86c0,0.19,0.02,0.38,0.05,0.57l-2.92,0.77l-7.63-4.76l3.83-0.96
		c0.39,0.64,1.08,1.06,1.88,1.06c1.22,0,2.21-0.99,2.21-2.21c0-1.22-0.99-2.21-2.21-2.21c-1.22,0-2.21,0.99-2.21,2.21
		c0,0.14,0.02,0.27,0.04,0.4l-4.47,1.13l-0.05-0.03l-0.03,0.06L73.6,38.75l-0.6-0.6l5.28-5.34l7.35,0.16l6.08-5.82l2.39,0.05
		c0.36,0.87,1.22,1.48,2.22,1.48c1.33,0,2.4-1.08,2.4-2.4s-1.08-2.4-2.4-2.4c-1.22,0-2.22,0.92-2.37,2.1l-2.01-0.04l0.14-6.38
		l1.17-1.12c0.3,0.13,0.63,0.21,0.97,0.21c1.33,0,2.4-1.08,2.4-2.4s-1.08-2.4-2.4-2.4c-1.33,0-2.4,1.08-2.4,2.4
		c0,0.53,0.18,1.02,0.47,1.42l-4.93,4.71l0.07,0.07c-0.37-0.23-0.79-0.36-1.26-0.36c-1.33,0-2.4,1.08-2.4,2.4
		c0,1.33,1.08,2.4,2.4,2.4c1.33,0,2.4-1.08,2.4-2.4c0-0.46-0.14-0.88-0.36-1.25l2.61-2.5l-0.13,5.68l-5.55,5.32l-7.37-0.16
		l-5.64,5.7l-0.45-0.45l8.37-8.27c0.21,0.12,0.45,0.2,0.72,0.2c0.81,0,1.46-0.65,1.46-1.46c0-0.81-0.65-1.46-1.46-1.46
		c-0.81,0-1.46,0.65-1.46,1.46c0,0.26,0.07,0.49,0.19,0.7l-4.14,4.09l0.03-6.76c0.49-0.24,0.83-0.73,0.83-1.31
		c0-0.81-0.65-1.46-1.46-1.46s-1.46,0.65-1.46,1.46c0,0.75,0.57,1.36,1.29,1.44l-0.04,7.42l-3.44,3.4l-0.8-0.8l-0.58,0.58
		l-2.89-12.31l0.03,0.02l5.48-8.54l3.47-0.59l0-0.01c0.54,0.86,1.48,1.43,2.57,1.43c1.68,0,3.04-1.36,3.04-3.04
		c0-1.68-1.36-3.04-3.04-3.04c-1.68,0-3.04,1.36-3.04,3.04c0,0.15,0.02,0.3,0.05,0.45l-2.96,0.5l-0.59-2.38
		c1.51-0.53,2.59-1.96,2.59-3.64c0-2.13-1.73-3.86-3.86-3.86c-2.13,0-3.86,1.73-3.86,3.86c0,2.13,1.73,3.86,3.86,3.86
		c0.02,0,0.05,0,0.07,0l0.68,2.75l-4.87,7.59l-0.93-3.95c0.7-0.37,1.18-1.1,1.18-1.95c0-1.22-0.99-2.21-2.21-2.21
		c-1.22,0-2.21,0.99-2.21,2.21c0,1.22,0.99,2.21,2.21,2.21c0.09,0,0.18-0.02,0.27-0.03l1.09,4.65l-0.02,0.03l0.03,0.02l3.19,13.58
		l-0.32,0.32l-5.36-5.07v-7.35l-5.95-5.95v-2.72c0.99-0.3,1.72-1.2,1.72-2.29c0-1.33-1.08-2.4-2.4-2.4s-2.4,1.08-2.4,2.4
		c0,1.14,0.8,2.09,1.87,2.34v2.47h-6.38l-1.08-1.08c0.25-0.38,0.4-0.84,0.4-1.33c0-1.33-1.08-2.4-2.4-2.4s-2.4,1.08-2.4,2.4
		c0,1.33,1.08,2.4,2.4,2.4c0.39,0,0.75-0.1,1.08-0.27l4.61,4.61c-0.16,0.32-0.26,0.69-0.26,1.07c0,1.33,1.08,2.4,2.4,2.4
		c1.33,0,2.4-1.08,2.4-2.4c0-1.33-1.08-2.4-2.4-2.4c-0.49,0-0.95,0.15-1.33,0.41l-2.2-2.2h5.68l5.44,5.43v7.37l5.72,5.41l-0.53,0.53
		l-8.32-8.34c0.07-0.17,0.11-0.36,0.11-0.56c0-0.81-0.65-1.46-1.46-1.46c-0.81,0-1.46,0.65-1.46,1.46c0,0.81,0.65,1.46,1.46,1.46
		c0.32,0,0.61-0.11,0.85-0.28l4,4.01h-7.09c-0.24-0.48-0.73-0.81-1.3-0.81c-0.81,0-1.46,0.65-1.46,1.46s0.65,1.46,1.46,1.46
		c0.76,0,1.37-0.58,1.45-1.32h7.74l3.46,3.47l-0.86,0.86l0.54,0.54l-12.36,3.26l0.01-0.01l-8.71-5.31l-1.05-4.49
		c1.02-0.49,1.72-1.52,1.72-2.73c0-1.68-1.36-3.04-3.04-3.04c-1.68,0-3.04,1.36-3.04,3.04c0,1.68,1.36,3.04,3.04,3.04
		c0.05,0,0.09-0.01,0.13-0.01l0.98,4.18l-2.72,0.75c-0.55-1.45-1.96-2.49-3.6-2.49c-2.13,0-3.86,1.73-3.86,3.86
		c0,2.13,1.73,3.86,3.86,3.86c2.13,0,3.86-1.73,3.86-3.86c0-0.06-0.01-0.12-0.01-0.18l3.13-0.86l7.68,4.68l-3.92,1.03
		c-0.33-0.79-1.12-1.35-2.04-1.35c-1.22,0-2.21,0.99-2.21,2.21c0,1.22,0.99,2.21,2.21,2.21c1.22,0,2.21-0.99,2.21-2.21
		c0-0.03-0.01-0.05-0.01-0.08l4.69-1.24l0.05,0.03l0.03-0.06l13.6-3.58l0.31,0.31l-5.27,5.45l-7.35-0.08l-6.02,5.89l-2.48-0.03
		c-0.35-0.89-1.21-1.52-2.23-1.52c-1.33,0-2.4,1.08-2.4,2.4s1.08,2.4,2.4,2.4c1.21,0,2.2-0.9,2.37-2.06l2.13,0.02l-0.07,6.38
		l-1.24,1.21c-0.35-0.2-0.75-0.33-1.19-0.33c-1.33,0-2.4,1.08-2.4,2.4s1.08,2.4,2.4,2.4c1.33,0,2.4-1.08,2.4-2.4
		c0-0.45-0.13-0.86-0.34-1.22l4.93-4.82c0.33,0.17,0.69,0.27,1.08,0.27c1.33,0,2.4-1.08,2.4-2.4s-1.08-2.4-2.4-2.4
		c-1.33,0-2.4,1.08-2.4,2.4c0,0.49,0.15,0.95,0.4,1.33l-2.41,2.36l0.07-5.68l5.49-5.37l7.37,0.08l5.62-5.81l0.45,0.45l-8.42,8.5
		c-0.17-0.07-0.36-0.11-0.56-0.11c-0.81,0-1.46,0.65-1.46,1.46s0.65,1.46,1.46,1.46c0.81,0,1.46-0.65,1.46-1.46
		c0-0.32-0.11-0.61-0.28-0.85l4.13-4.17l0.04,6.99c-0.57,0.2-0.98,0.74-0.98,1.37c0,0.81,0.65,1.46,1.46,1.46
		c0.81,0,1.46-0.65,1.46-1.46c0-0.7-0.49-1.28-1.15-1.43l-0.05-7.73l3.44-3.47l1.01,1.01l0.39-0.39l3.1,12.88l-0.01-0.01l-5.48,8.58
		l-4.38,1.1c-0.5-1.01-1.52-1.7-2.72-1.7c-1.68,0-3.04,1.36-3.04,3.04c0,1.68,1.36,3.04,3.04,3.04c1.68,0,3.04-1.36,3.04-3.04
		c0-0.05-0.01-0.11-0.02-0.16l4.01-1.01l0.62,2.45C67.23,69.44,66,70.94,66,72.74c0,2.13,1.73,3.86,3.86,3.86
		c2.13,0,3.86-1.73,3.86-3.86c0-2.04-1.59-3.71-3.6-3.85l-0.74-2.96l4.84-7.58l0.97,4.02c-0.85,0.31-1.46,1.11-1.46,2.07
		c0,1.22,0.99,2.21,2.21,2.21c1.22,0,2.21-0.99,2.21-2.21c0-1.21-0.97-2.19-2.18-2.21l-1.16-4.82l0.03-0.05l-0.06-0.04l-3.41-14.15
		l0.59-0.59l5.31,5.36l-0.24,7.34l5.76,6.14l-0.09,2.64c-0.79,0.39-1.34,1.2-1.34,2.14c0,1.33,1.08,2.4,2.4,2.4
		c1.33,0,2.4-1.08,2.4-2.4c0-1.27-0.99-2.3-2.24-2.38L84,61.68l6.38,0.21l1.23,1.31c-0.11,0.4-0.12,0.83-0.01,1.26
		c0.35,1.28,1.67,2.03,2.95,1.68c1.28-0.35,2.03-1.67,1.68-2.95c-0.35-1.28-1.67-2.03-2.95-1.68c-0.4,0.11-0.75,0.33-1.03,0.6
		l-4.58-4.9c0.26-0.39,0.42-0.85,0.42-1.35c0-1.33-1.08-2.4-2.4-2.4c-1.33,0-2.4,1.08-2.4,2.4c0,1.33,1.08,2.4,2.4,2.4
		c0.38,0,0.74-0.1,1.06-0.25l2.46,2.63l-5.68-0.19l-5.26-5.61l0.24-7.36l-5.68-5.74l0.45-0.45l8.27,8.55
		c-0.11,0.2-0.18,0.43-0.18,0.68c0,0.81,0.65,1.46,1.46,1.46c0.81,0,1.46-0.65,1.46-1.46c0-0.81-0.65-1.46-1.46-1.46
		c-0.27,0-0.52,0.08-0.73,0.2l-4.07-4.21l6.84,0.11c0.24,0.48,0.73,0.81,1.3,0.81c0.81,0,1.46-0.65,1.46-1.46
		c0-0.81-0.65-1.46-1.46-1.46c-0.76,0-1.37,0.58-1.44,1.31l-7.48-0.11l-3.41-3.53l0.87-0.87l-0.45-0.45l12.82-3.23l-0.01,0.01
		l8.63,5.38l1.03,4.14l1.18-0.29l-0.94-3.8l2.65-0.7c0.64,1.26,1.94,2.13,3.44,2.13c2.13,0,3.86-1.73,3.86-3.86
		C106.93,37.06,105.2,35.33,103.07,35.33z"/>
</g>
<g>
	<path class="st0" d="M14.19,107.27l-3.63-6.05H8.27v6.05H5.77v-14.9h4.73c3.65,0,5.52,1.32,5.52,4.18c0,1.78-1.25,3.26-3.06,3.94
		l4.07,6.78H14.19z M13.51,96.76c0-1.67-1.25-2.22-3.04-2.22h-2.2v4.6h2.24C12.37,99.13,13.51,98.3,13.51,96.76z"/>
	<path class="st0" d="M21.16,92.38h9.02v2.18H23.7v3.96h5.66v2.18H23.7v4.4h6.56v2.18h-9.09V92.38z"/>
	<path class="st0" d="M42,94.18c-3.3,0-5.37,2.13-5.37,5.63c0,3.3,1.72,5.66,5.52,5.66c1.25,0,2.29-0.18,3.63-0.62v2.13
		c-1.12,0.35-2.4,0.59-4.07,0.59c-5.28,0-7.68-3.23-7.68-7.68c0-5.41,3.5-7.83,7.53-7.83c1.52,0,2.82,0.24,3.92,0.59v2.2
		C44.4,94.45,43.28,94.18,42,94.18z"/>
	<path class="st0" d="M48.62,92.38h2.82L55,99.13h0.04l3.54-6.75h2.62l-5.04,9.06v5.83h-2.51v-5.83L48.62,92.38z"/>
	<path class="st0" d="M71.96,93.37c-3.45,0-5.81,2.42-5.81,6.45c0,3.7,1.74,6.47,5.92,6.47c1.36,0,2.44-0.18,3.78-0.68v1.28
		c-1.19,0.42-2.42,0.68-3.98,0.68c-5.15,0-7.24-3.32-7.24-7.63c0-5.28,3.15-7.79,7.04-7.79c1.54,0,2.82,0.24,3.87,0.66v1.32
		C74.43,93.65,73.24,93.37,71.96,93.37z"/>
	<path class="st0" d="M80.63,92.38h1.47v13.6h6.93v1.3h-8.4V92.38z"/>
	<path class="st0" d="M104.88,107.27h-1.54l-1.63-4.29h-6.65l-1.63,4.29h-1.5l5.63-14.9h1.69L104.88,107.27z M95.39,101.71h5.94
		l-2.97-7.79L95.39,101.71z"/>
	<path class="st0" d="M116.27,93.37c-4.49,0-6.18,2.93-6.18,6.47c0,4.31,2.09,6.47,5.59,6.47c1.36,0,2.33-0.18,3.06-0.4v-6.16h1.47
		v6.97c-1.12,0.48-2.66,0.84-4.73,0.84c-3.94,0-6.91-2.2-6.91-7.63c0-4.95,2.75-7.79,7.48-7.79c1.65,0,2.68,0.33,3.67,0.73v1.32
		C118.87,93.79,117.75,93.37,116.27,93.37z"/>
	<path class="st0" d="M126,92.38h8.34v1.3h-6.87v5.26h6.01v1.28h-6.01v5.76h6.93v1.3H126V92.38z"/>
</g>
<g>
	<g>
		<path class="st0" d="M37.78,119.79c2.31-0.19,3.62-0.9,3.62-1.81c0-1.25-1.94-1.95-6.46-1.95h-0.94c0,0-3.75,0-3.75,1.66
			c0,1.42,0,6.3,0,6.3h5.49c4.7,0,6.92-0.87,6.92-2.25C42.64,120.64,40.62,119.89,37.78,119.79z M31.14,118.1
			c0-1.33,3.61-1.4,3.61-1.4h0.21c3.19,0,5.53,0.53,5.53,1.4c0,0.86-2.51,1.42-4.93,1.42h-4.42
			C31.14,119.52,31.14,119.4,31.14,118.1z M35.93,123.3h-4.79v-3.13h4.59c2.79,0,5.95,0.51,5.95,1.56
			C41.68,122.72,38.89,123.3,35.93,123.3z"/>
	</g>
	<g>
		<path class="st0" d="M53.66,116.47c0-0.06-0.02-0.11-0.04-0.15c-0.01-0.01-0.01-0.02-0.01-0.04l-0.03-0.08h-0.73l-0.02,0.24
			c-0.01,0.09-0.01,0.17-0.02,0.26c0,0.26,0,0.51,0,0.77c0,0.52,0,1.06-0.02,1.59c-0.03,0.66-0.69,1.17-1.54,1.18
			c-1.56,0.03-3.09,0.03-4.57,0c-0.89-0.01-1.56-0.56-1.56-1.26c0-0.48,0-0.96,0-1.43c0-0.29,0-0.58,0-0.87
			c0-0.08-0.01-0.16-0.01-0.25l-0.02-0.23h-0.79v0.12c0,0.31-0.01,0.62-0.01,0.93c-0.02,0.71-0.03,1.45,0.04,2.17
			c0.08,0.8,1.1,1.52,2.18,1.53c0.49,0.01,0.96,0.01,1.43,0.01c0.07,0.01,0.66,0.11,0.66,0.42c0,0.01,0,0.01,0.01,0.01v2.57h0.75
			v-2.65c0.03-0.11,0.17-0.35,0.69-0.36c0.46,0,0.92,0,1.37-0.01c1.16-0.02,2.21-0.85,2.25-1.78c0.03-0.66,0.02-1.33,0.02-1.98
			C53.66,116.96,53.66,116.72,53.66,116.47z"/>
	</g>
</g>
</svg>
