<?xml version="1.0" encoding="utf-8"?>
<!-- Generator: Adobe Illustrator 23.0.2, SVG Export Plug-In . SVG Version: 6.00 Build 0)  -->
<svg version="1.1" id="Calque_1" xmlns="http://www.w3.org/2000/svg" xmlns:xlink="http://www.w3.org/1999/xlink" x="0px" y="0px"
	 viewBox="0 0 76.15 75.99" style="enable-background:new 0 0 76.15 75.99;" xml:space="preserve">
<style type="text/css">
	.st0{fill:#FFFFFF;}
</style>
<g>
	<circle class="st0" cx="38.4" cy="23.48" r="2.03"/>
	<circle class="st0" cx="22.89" cy="38.61" r="2.03"/>
	<circle class="st0" cx="38.82" cy="54.45" r="2.03"/>
	<circle class="st0" cx="53.6" cy="38.19" r="2.03"/>
	<circle class="st0" cx="66" cy="47.12" r="3.04"/>
	<path class="st0" d="M70.99,33.93c-2.13,0-3.86,1.73-3.86,3.86c0,0.19,0.02,0.38,0.05,0.57l-2.92,0.77l-7.63-4.76l3.83-0.96
		c0.39,0.64,1.08,1.06,1.88,1.06c1.22,0,2.21-0.99,2.21-2.21c0-1.22-0.99-2.21-2.21-2.21c-1.22,0-2.21,0.99-2.21,2.21
		c0,0.14,0.02,0.27,0.04,0.4l-4.47,1.13l-0.05-0.03l-0.03,0.06l-14.08,3.55l-0.6-0.6l5.28-5.34l7.35,0.16l6.08-5.82l2.39,0.05
		c0.36,0.87,1.22,1.48,2.22,1.48c1.33,0,2.4-1.08,2.4-2.4s-1.08-2.4-2.4-2.4c-1.22,0-2.22,0.92-2.37,2.1l-2.01-0.04l0.14-6.38
		l1.17-1.12c0.3,0.13,0.63,0.21,0.97,0.21c1.33,0,2.4-1.08,2.4-2.4s-1.08-2.4-2.4-2.4c-1.33,0-2.4,1.08-2.4,2.4
		c0,0.53,0.18,1.02,0.47,1.42L55.27,21l0.07,0.07c-0.37-0.23-0.79-0.36-1.26-0.36c-1.33,0-2.4,1.08-2.4,2.4c0,1.33,1.08,2.4,2.4,2.4
		c1.33,0,2.4-1.08,2.4-2.4c0-0.46-0.14-0.88-0.36-1.25l2.61-2.5l-0.13,5.68l-5.55,5.32l-7.37-0.16l-5.64,5.7l-0.45-0.45l8.37-8.27
		c0.21,0.12,0.45,0.2,0.72,0.2c0.81,0,1.46-0.65,1.46-1.46c0-0.81-0.65-1.46-1.46-1.46c-0.81,0-1.46,0.65-1.46,1.46
		c0,0.26,0.07,0.49,0.19,0.7l-4.14,4.09l0.03-6.76c0.49-0.24,0.83-0.73,0.83-1.31c0-0.81-0.65-1.46-1.46-1.46s-1.46,0.65-1.46,1.46
		c0,0.75,0.57,1.36,1.29,1.44l-0.04,7.42l-3.44,3.4l-0.8-0.8l-0.58,0.58l-2.89-12.31l0.03,0.02l5.48-8.54l3.47-0.59l0-0.01
		c0.54,0.86,1.48,1.43,2.57,1.43c1.68,0,3.04-1.36,3.04-3.04c0-1.68-1.36-3.04-3.04-3.04c-1.68,0-3.04,1.36-3.04,3.04
		c0,0.15,0.02,0.3,0.05,0.45l-2.96,0.5l-0.59-2.38c1.51-0.53,2.59-1.96,2.59-3.64c0-2.13-1.73-3.86-3.86-3.86
		c-2.13,0-3.86,1.73-3.86,3.86c0,2.13,1.73,3.86,3.86,3.86c0.02,0,0.05,0,0.07,0l0.68,2.75l-4.87,7.59l-0.93-3.95
		c0.7-0.37,1.18-1.1,1.18-1.95c0-1.22-0.99-2.21-2.21-2.21c-1.22,0-2.21,0.99-2.21,2.21c0,1.22,0.99,2.21,2.21,2.21
		c0.09,0,0.18-0.02,0.27-0.03l1.09,4.65l-0.02,0.03l0.03,0.02L37,35.33l-0.32,0.32l-5.36-5.07v-7.35l-5.95-5.95v-2.72
		c0.99-0.3,1.72-1.2,1.72-2.29c0-1.33-1.08-2.4-2.4-2.4s-2.4,1.08-2.4,2.4c0,1.14,0.8,2.09,1.87,2.34v2.47h-6.38l-1.08-1.08
		c0.25-0.38,0.4-0.84,0.4-1.33c0-1.33-1.08-2.4-2.4-2.4s-2.4,1.08-2.4,2.4c0,1.33,1.08,2.4,2.4,2.4c0.39,0,0.75-0.1,1.08-0.27
		l4.61,4.61c-0.16,0.32-0.26,0.69-0.26,1.07c0,1.33,1.08,2.4,2.4,2.4c1.33,0,2.4-1.08,2.4-2.4c0-1.33-1.08-2.4-2.4-2.4
		c-0.49,0-0.95,0.15-1.33,0.41l-2.2-2.2h5.68l5.44,5.43v7.37l5.72,5.41l-0.53,0.53l-8.32-8.34c0.07-0.17,0.11-0.36,0.11-0.56
		c0-0.81-0.65-1.46-1.46-1.46s-1.46,0.65-1.46,1.46c0,0.81,0.65,1.46,1.46,1.46c0.32,0,0.61-0.11,0.85-0.28l4,4.01h-7.09
		c-0.24-0.48-0.73-0.81-1.3-0.81c-0.81,0-1.46,0.65-1.46,1.46s0.65,1.46,1.46,1.46c0.76,0,1.37-0.58,1.45-1.32h7.74l3.46,3.47
		l-0.86,0.86L34.41,39l-12.36,3.26l0.01-0.01l-8.71-5.31l-1.05-4.49c1.02-0.49,1.72-1.52,1.72-2.73c0-1.68-1.36-3.04-3.04-3.04
		s-3.04,1.36-3.04,3.04c0,1.68,1.36,3.04,3.04,3.04c0.05,0,0.09-0.01,0.13-0.01l0.98,4.18l-2.72,0.75c-0.55-1.45-1.96-2.49-3.6-2.49
		c-2.13,0-3.86,1.73-3.86,3.86c0,2.13,1.73,3.86,3.86,3.86c2.13,0,3.86-1.73,3.86-3.86c0-0.06-0.01-0.12-0.01-0.18l3.13-0.86
		l7.68,4.68l-3.92,1.03c-0.33-0.79-1.12-1.35-2.04-1.35c-1.22,0-2.21,0.99-2.21,2.21c0,1.22,0.99,2.21,2.21,2.21
		c1.22,0,2.21-0.99,2.21-2.21c0-0.03-0.01-0.05-0.01-0.08l4.69-1.24l0.05,0.03l0.03-0.06l13.6-3.58l0.31,0.31l-5.27,5.45l-7.35-0.08
		l-6.02,5.89l-2.48-0.03c-0.35-0.89-1.21-1.52-2.23-1.52c-1.33,0-2.4,1.08-2.4,2.4s1.08,2.4,2.4,2.4c1.21,0,2.2-0.9,2.37-2.06
		l2.13,0.02l-0.07,6.38l-1.24,1.21c-0.35-0.2-0.75-0.33-1.19-0.33c-1.33,0-2.4,1.08-2.4,2.4s1.08,2.4,2.4,2.4
		c1.33,0,2.4-1.08,2.4-2.4c0-0.45-0.13-0.86-0.34-1.22l4.93-4.82c0.33,0.17,0.69,0.27,1.08,0.27c1.33,0,2.4-1.08,2.4-2.4
		s-1.08-2.4-2.4-2.4c-1.33,0-2.4,1.08-2.4,2.4c0,0.49,0.15,0.95,0.4,1.33l-2.41,2.36l0.07-5.68l5.49-5.37l7.37,0.08l5.62-5.81
		l0.45,0.45l-8.42,8.5c-0.17-0.07-0.36-0.11-0.56-0.11c-0.81,0-1.46,0.65-1.46,1.46s0.65,1.46,1.46,1.46c0.81,0,1.46-0.65,1.46-1.46
		c0-0.32-0.11-0.61-0.28-0.85l4.13-4.17l0.04,6.99c-0.57,0.2-0.98,0.74-0.98,1.37c0,0.81,0.65,1.46,1.46,1.46
		c0.81,0,1.46-0.65,1.46-1.46c0-0.7-0.49-1.28-1.15-1.43L33.8,45.3l3.44-3.47l1.01,1.01l0.39-0.39l3.1,12.88l-0.01-0.01l-5.48,8.58
		l-4.38,1.1c-0.5-1.01-1.52-1.7-2.72-1.7c-1.68,0-3.04,1.36-3.04,3.04c0,1.68,1.36,3.04,3.04,3.04c1.68,0,3.04-1.36,3.04-3.04
		c0-0.05-0.01-0.11-0.02-0.16l4.01-1.01l0.62,2.45c-1.66,0.43-2.89,1.94-2.89,3.73c0,2.13,1.73,3.86,3.86,3.86
		c2.13,0,3.86-1.73,3.86-3.86c0-2.04-1.59-3.71-3.6-3.85l-0.74-2.96l4.84-7.58l0.97,4.02c-0.85,0.31-1.46,1.11-1.46,2.07
		c0,1.22,0.99,2.21,2.21,2.21c1.22,0,2.21-0.99,2.21-2.21c0-1.21-0.97-2.19-2.18-2.21l-1.16-4.82l0.03-0.05l-0.06-0.04l-3.41-14.15
		l0.59-0.59l5.31,5.36l-0.24,7.34l5.76,6.14l-0.09,2.64c-0.79,0.39-1.34,1.2-1.34,2.14c0,1.33,1.08,2.4,2.4,2.4s2.4-1.08,2.4-2.4
		c0-1.27-0.99-2.3-2.24-2.38l0.07-2.16l6.38,0.21l1.23,1.31c-0.11,0.4-0.12,0.83-0.01,1.26c0.35,1.28,1.67,2.03,2.95,1.68
		c1.28-0.35,2.03-1.67,1.68-2.95c-0.35-1.28-1.67-2.03-2.95-1.68c-0.4,0.11-0.75,0.33-1.03,0.6l-4.58-4.9
		c0.26-0.39,0.42-0.85,0.42-1.35c0-1.33-1.08-2.4-2.4-2.4c-1.33,0-2.4,1.08-2.4,2.4c0,1.33,1.08,2.4,2.4,2.4
		c0.38,0,0.74-0.1,1.06-0.25l2.46,2.63l-5.68-0.19l-5.26-5.61l0.24-7.36l-5.68-5.74l0.45-0.45l8.27,8.55
		c-0.11,0.2-0.18,0.43-0.18,0.68c0,0.81,0.65,1.46,1.46,1.46c0.81,0,1.46-0.65,1.46-1.46c0-0.81-0.65-1.46-1.46-1.46
		c-0.27,0-0.52,0.08-0.73,0.2l-4.07-4.21l6.84,0.11c0.24,0.48,0.73,0.81,1.3,0.81c0.81,0,1.46-0.65,1.46-1.46s-0.65-1.46-1.46-1.46
		c-0.76,0-1.37,0.58-1.44,1.31l-7.48-0.11l-3.41-3.53l0.87-0.87l-0.45-0.45l12.82-3.23l-0.01,0.01l8.63,5.38l1.03,4.14l1.18-0.29
		l-0.94-3.8l2.65-0.7c0.64,1.26,1.94,2.13,3.44,2.13c2.13,0,3.86-1.73,3.86-3.86C74.84,35.66,73.12,33.93,70.99,33.93z"/>
</g>
</svg>
