<?xml version="1.0" encoding="UTF-8"?>
<svg width="23px" height="24px" viewBox="0 0 23 24" version="1.1" xmlns="http://www.w3.org/2000/svg" xmlns:xlink="http://www.w3.org/1999/xlink">
    <!-- Generator: Sketch 52.5 (67469) - http://www.bohemiancoding.com/sketch -->
    <title>Group</title>
    <desc>Created with Sketch.</desc>
    <g id="Symbols" stroke="none" stroke-width="1" fill="none" fill-rule="evenodd">
        <g id="Menu/60x60_Collaboratif_Clic" transform="translate(-19.000000, -18.000000)" fill="#FFFFFF" stroke="#FFFFFF" stroke-width="0.5">
            <g id="Group" transform="translate(20.000000, 19.000000)">
                <path d="M1.21242857,6.87679592 L19.6924286,6.87679592 L19.6924286,1.27016327 L1.21242857,1.27016327 L1.21242857,6.87679592 Z M3.67414286,20.6301633 L17.2309286,20.6301633 L17.2309286,8.14695918 L3.67414286,8.14695918 L3.67414286,20.6301633 Z M3.06771429,21.9003265 L17.8371429,21.9003265 C18.1714286,21.9003265 18.4433571,21.615449 18.4433571,21.2652449 L18.4433571,8.14695918 L20.2986429,8.14695918 C20.6329286,8.14695918 20.9048571,7.86208163 20.9048571,7.51187755 L20.9048571,0.635081633 C20.9048571,0.284877551 20.6329286,2.7533531e-13 20.2986429,2.7533531e-13 L0.606214286,2.7533531e-13 C0.271928571,2.7533531e-13 -4.26325641e-14,0.284877551 -4.26325641e-14,0.635081633 L-4.26325641e-14,7.51187755 C-4.26325641e-14,7.86208163 0.271928571,8.14695918 0.606214286,8.14695918 L2.4615,8.14695918 L2.4615,21.2652449 C2.4615,21.615449 2.73342857,21.9003265 3.06771429,21.9003265 Z" id="Fill-1"></path>
                <path d="M12.0935357,11.174698 L8.81153571,11.174698 C8.47725,11.174698 8.20510714,11.4595755 8.20510714,11.8097796 C8.20510714,12.1599837 8.47725,12.4448612 8.81153571,12.4448612 L12.0935357,12.4448612 C12.4278214,12.4448612 12.69975,12.1599837 12.69975,11.8097796 C12.69975,11.4595755 12.4278214,11.174698 12.0935357,11.174698" id="Fill-3"></path>
            </g>
        </g>
    </g>
</svg>