<?xml version="1.0" encoding="UTF-8"?>
<svg width="21px" height="24px" viewBox="0 0 21 24" version="1.1" xmlns="http://www.w3.org/2000/svg" xmlns:xlink="http://www.w3.org/1999/xlink">
    <!-- Generator: Sketch 52.5 (67469) - http://www.bohemiancoding.com/sketch -->
    <title>Group</title>
    <desc>Created with Sketch.</desc>
    <g id="Symbols" stroke="none" stroke-width="1" fill="none" fill-rule="evenodd">
        <g id="Menu/60x60_Bordereaux_Clic" transform="translate(-20.000000, -18.000000)" fill="#FFFFFF">
            <g id="Group" transform="translate(21.000000, 19.000000)">
                <path d="M17.8271605,0 L1.17283951,0 C0.525197531,0 0,0.496487355 0,1.10872567 L0,20.8912743 C0,21.5035126 0.525197531,22 1.17283951,22 L17.8271605,22 C18.475037,22 19,21.5035126 19,20.8912743 L19,1.10872567 C19,0.496487355 18.475037,0 17.8271605,0 Z M1.17283951,20.8912743 L17.8271605,20.8912743 L17.8271605,1.10872567 L1.17283951,1.10872567 L1.17283951,20.8912743 Z" id="Fill-1" stroke="#FFFFFF" stroke-width="0.5"></path>
                <path d="M15.1078519,15.98825 C14.9078519,15.98825 13.9253827,16.909 12.1972346,16.909 C10.5419259,16.909 9.17748148,16.00675 8.75920988,13.778 L13.8162469,13.778 C14.0710617,13.778 14.1799506,13.61225 14.1799506,13.2255 L14.1799506,13.04175 L14.1799506,12.913 L14.1799506,12.84675 C14.1671111,12.509 14.0552593,12.36025 13.8162469,12.36025 L8.75920988,12.36025 C9.17748148,10.0765 10.4327901,9.21075 12.3429136,9.21075 C13.907358,9.21075 14.7076049,10.021 14.8713086,10.021 C15.1078519,10.021 15.4898272,9.32125 15.4898272,9.0265 C15.4898272,8.52925 13.9979753,7.8845 12.3792099,7.8845 C9.596,7.8845 7.63130864,9.358 7.14019753,12.36025 L6.10340741,12.36025 C5.86414815,12.36025 5.7522963,12.509 5.7397037,12.84675 L5.7397037,13.2255 C5.7397037,13.61225 5.84859259,13.778 6.10340741,13.778 L7.10390123,13.778 C7.55871605,16.817 9.3414321,18.235 12.3429136,18.235 C14.2527901,18.235 15.7443951,17.4065 15.7443951,16.909 C15.7443951,16.7065 15.3441481,15.98825 15.1078519,15.98825" id="Fill-3"></path>
            </g>
        </g>
    </g>
</svg>