<?xml version="1.0" encoding="UTF-8"?>
<svg width="35px" height="35px" viewBox="0 0 35 35" version="1.1" xmlns="http://www.w3.org/2000/svg" xmlns:xlink="http://www.w3.org/1999/xlink">
    <!-- Generator: Sketch 52.5 (67469) - http://www.bohemiancoding.com/sketch -->
    <title>Logo_Réduit</title>
    <desc>Created with Sketch.</desc>
    <defs>
        <polygon id="path-1" points="0.0163081492 0.142268104 34.101573 0.142268104 34.101573 34.3671762 0.0163081492 34.3671762 0.0163081492 0.142268104"></polygon>
    </defs>
    <g id="Symbols" stroke="none" stroke-width="1" fill="none" fill-rule="evenodd">
        <g id="Menu/60x60_Logo" transform="translate(-12.000000, -12.000000)">
            <g id="Logo">
                <g id="Logo_Réduit" transform="translate(12.000000, 12.000000)">
                    <path d="M18.3933974,15.5586366 C18.33627,15.0722008 18.2102579,14.7265196 18.1258479,14.5341549 C18.2556283,14.4023299 18.5614638,14.3817464 18.4040994,14.3174231 C18.2921054,14.2965369 18.1146937,14.3431524 18.0343535,14.3566225 L18.032394,14.3525361 C18.0106886,14.3576819 17.9916963,14.3626764 17.9689358,14.3678223 C17.821369,14.3977894 17.6814896,14.4285133 17.5545731,14.4642317 C17.4792071,14.4826962 17.4094181,14.5041878 17.3375189,14.5241659 C17.2259771,14.5585221 17.1210675,14.592727 17.0294224,14.625267 C16.9858608,14.6425208 16.9386817,14.6588665 16.8925576,14.676423 C16.6941942,14.7539137 16.5748143,14.8111237 16.5748143,14.8111237 L16.5773768,14.8127885 C16.3072648,14.9411325 16.0876481,15.0747737 15.9134017,15.1960043 C15.9134017,15.1960043 15.9075232,15.4552652 16.4656843,15.430898 C17.1001158,15.3836771 17.8861838,15.3960877 18.3933974,15.5586366 Z M21.8309943,17.5628007 C22.4783888,17.8733689 22.4474887,18.397642 22.2613346,18.7383287 C22.0768384,19.0768966 21.768139,19.5719593 21.3373466,19.8174474 C21.336593,20.3417205 21.4889831,20.7426442 21.8252665,21.0852984 C22.0727687,21.4570117 21.9199263,21.7232346 21.7334706,21.887297 C21.6660934,21.9464745 21.5030012,21.996117 21.3007187,22.041673 C21.1674715,22.0543864 19.8741899,22.1800061 19.0061235,21.7480559 C18.5815111,21.4984813 18.7910288,21.8447679 18.8722734,21.9264964 C18.9509556,22.0070141 19.5893061,22.4657531 20.592127,22.6048428 C20.7267308,22.6451017 20.8658565,22.6883875 21.0060374,22.7307652 C21.2642415,22.8474554 21.4550684,22.9742859 21.4550684,23.0897652 C21.4543147,23.4622352 20.9302191,23.7708359 20.9297669,24.0488641 C20.9290133,24.3264382 21.266804,25.1923061 21.2333414,25.5939865 C21.2025921,25.9953642 20.9537334,27.290458 19.7542071,27.627815 C18.8985008,27.8690654 16.5255249,28.3936412 14.6873466,29.3649994 C14.6873466,29.3649994 13.7063819,30.3110823 14.1142631,33.2654156 L14.1026567,33.2631454 C13.7867222,33.1957951 13.4745559,33.1170936 13.1655551,33.030976 C13.0891339,33.0103925 13.0154259,32.9890523 12.9402105,32.9655932 C12.6847196,32.8926429 12.4311881,32.8092496 12.1811235,32.7235861 C12.1154043,32.7010351 12.0478763,32.6787867 11.9804991,32.655479 C11.6805421,32.5480212 11.3848057,32.4307257 11.0926868,32.306014 C11.0201847,32.2742307 10.9485869,32.237907 10.8748789,32.206275 C10.6621959,32.1101684 10.4513216,32.0104294 10.2436128,31.9064526 C10.1314681,31.849848 10.0211321,31.7932435 9.91094696,31.7346714 C9.73881087,31.6444674 9.57195041,31.5507823 9.40463775,31.4555837 C9.29354817,31.390201 9.17929322,31.3267857 9.06805291,31.2594354 C8.831102,31.114443 8.59731647,30.9649101 8.36835437,30.8081125 C8.22998228,30.7141248 8.09598142,30.6143857 7.96047323,30.5160089 C7.85375489,30.4398803 7.74763947,30.3611788 7.64272991,30.2815692 C7.49335437,30.1683601 7.34744567,30.0518213 7.20289356,29.9339204 C7.12782896,29.871716 7.05412095,29.8078467 6.97860415,29.7450368 C6.43807875,29.2853898 5.92875489,28.7924459 5.45183844,28.2675674 C5.43842328,28.2548541 5.4268169,28.2410813 5.41355247,28.2262491 C5.24548615,28.0381223 5.08043447,27.8457576 4.92065842,27.6506687 C4.80248443,27.5073412 4.68732508,27.358111 4.57502965,27.2108484 C4.53930614,27.1631734 4.50147237,27.1153471 4.46484446,27.0687316 C4.32466359,26.8809075 4.18810028,26.6927806 4.0568126,26.4989025 C4.05364722,26.4946647 4.05334576,26.4936052 4.05153697,26.4898215 C2.25420708,23.8552887 1.20285049,20.6630346 1.20918124,17.2272599 C1.21897883,11.7220896 3.93637763,6.86106094 8.09115799,3.90037088 C10.5699478,3.87827392 12.9763862,4.51742095 14.6308221,5.27340943 C17.3100856,6.49752053 19.5287118,8.79726929 20.0431606,13.6195526 C19.7653613,13.6501251 19.1637893,14.0068548 19.1637893,14.0068548 C19.2233285,14.4089893 19.1913733,15.3355481 19.7751588,15.9521441 C20.3577385,16.5720698 21.1881218,17.2534432 21.8309943,17.5628007 Z M29.8936558,13.1042091 C30.0692588,13.0609233 30.0410719,12.9869136 30.0088152,12.9652707 C29.818742,12.8818774 29.5391339,12.785468 29.2542501,12.7432416 C29.2542501,12.7409714 29.2542501,12.7409714 29.2557575,12.7409714 C29.2557575,12.7409714 29.1749651,12.7294689 29.0409642,12.7205393 C29.0123251,12.7170583 28.9803699,12.7144853 28.9496205,12.7144853 C28.8887247,12.7088854 28.8213475,12.7088854 28.7476395,12.7088854 C28.703475,12.7088854 28.6559943,12.7114583 28.6089659,12.7138799 C28.5253096,12.7156961 28.4381864,12.7220528 28.3436774,12.7294689 C28.3299607,12.7335553 28.31745,12.7335553 28.3037334,12.7346147 C28.3037334,12.7346147 28.3010202,12.736885 28.3010202,12.7380958 C28.2533888,12.7432416 28.2051545,12.7462686 28.15481,12.7567117 C28.0290994,12.8964069 28.3905551,12.7925814 28.4467781,12.9280388 C28.4282381,13.0604692 28.418742,13.2880982 28.4719504,13.588072 C28.819388,13.347427 29.4785396,13.1677757 29.89245,13.1042091 L29.8936558,13.1042091 Z M33.7234577,15.5386585 C33.7839013,16.1136336 33.8125404,16.6964787 33.8117868,17.2887076 C33.8110331,17.6672315 33.7943018,18.0430312 33.7691296,18.4164093 C33.7634017,18.4842137 33.7573725,18.5523208 33.7526998,18.6199738 C33.689543,19.3792919 33.5766446,20.1248374 33.4137032,20.8525236 C33.4076739,20.882642 33.3989315,20.9123064 33.394108,20.942879 C33.3081907,21.3124733 33.2031304,21.6743489 33.0927945,22.0357704 C32.4613776,22.0525702 31.8676438,22.1070558 31.4051976,22.1556389 C31.1257402,22.1833357 30.8960245,22.2090651 30.7326309,22.2245027 C29.7988453,22.307896 29.2831907,21.4624602 29.1562743,21.1868536 C29.0289056,20.9138199 29.0371959,20.2173116 28.9636386,20.0210119 C28.8902321,19.8256203 28.4407489,19.7485836 28.3429237,19.4897768 C28.2435912,19.2305158 29.5142631,18.3924962 29.5142631,18.3924962 C29.5142631,18.3924962 28.0138755,18.7457448 27.8287764,18.7171399 C27.6448832,18.6886862 27.4780228,18.5040404 27.55158,18.1793967 C27.6985439,17.8502125 27.701257,17.5255688 27.5628849,17.1586987 C27.1935912,17.0987645 26.8473595,16.8357199 26.628798,16.6448687 C26.4094827,16.4558338 26.2486515,16.0963798 26.6215628,15.7074127 C26.9925146,15.3178403 27.3954216,14.6186077 27.6420193,14.0283464 C27.8881649,13.440204 27.6201632,12.7999975 27.5576093,12.499721 C27.5576093,12.499721 27.2403182,12.4472029 27.0392415,12.4982075 C26.4654043,10.1544162 26.6560805,8.65606063 27.52068,7.00635602 C27.8082769,6.45605089 28.1722949,5.8898541 28.6064035,5.27159325 C28.6205723,5.28249038 28.6335352,5.29626314 28.6471011,5.30927916 C28.6335352,5.29626314 28.6216274,5.28127958 28.6076093,5.26886896 C29.0082553,5.64270111 29.3897583,6.03711672 29.750611,6.45014827 C29.7531735,6.45105637 29.7542286,6.45256986 29.7546808,6.45499144 C29.9329969,6.65779917 30.1049823,6.86408792 30.2733501,7.07552253 C30.2793793,7.08414943 30.2837506,7.09156553 30.2909857,7.09837624 C30.4531735,7.30451364 30.6096334,7.51337533 30.7627773,7.72753423 C30.7730271,7.74176104 30.7828247,7.75568515 30.7924715,7.76945791 C30.9389831,7.97529262 31.0827816,8.18718128 31.2194956,8.40103749 C31.2332123,8.42101556 31.2445172,8.44129633 31.2579323,8.4624852 C31.391481,8.67089284 31.5191511,8.88474904 31.6436558,9.09921064 C31.6581261,9.12312379 31.6736515,9.15112336 31.6873682,9.17760945 C31.8070495,9.38828732 31.9213044,9.60047868 32.0305852,9.81539433 C32.0485223,9.84914517 32.0652536,9.88198791 32.0812312,9.91452796 C32.1867437,10.1262653 32.2884879,10.3389107 32.3839013,10.5551885 C32.4019892,10.5925717 32.4190219,10.6319224 32.435301,10.669911 C32.5295085,10.8828592 32.6173854,11.1001964 32.703152,11.3163228 C32.7186774,11.3577925 32.7354086,11.3994135 32.7507833,11.4419425 C32.8321787,11.6579176 32.9099564,11.8763143 32.9823079,12.0978893 C32.997984,12.1417805 33.0130572,12.1873366 33.0264724,12.2321359 C33.0988238,12.4523488 33.1627342,12.6737724 33.2251373,12.8968609 C33.2371959,12.9457467 33.2522691,12.9922108 33.2637247,13.0385236 C33.3235654,13.2652445 33.3775275,13.4912086 33.4286257,13.7218646 C33.4375189,13.7678747 33.4485223,13.81222 33.4587721,13.8585328 C33.5094181,14.0981183 33.5531304,14.3369471 33.5923208,14.5781975 C33.5992545,14.6173969 33.6072433,14.6537207 33.6134233,14.692466 C33.6533673,14.9529377 33.6883371,15.2144689 33.7169762,15.4784216 C33.7177299,15.4988537 33.7217997,15.5183778 33.7234577,15.5386585 Z" id="Fill-1" fill="#FEFEFE"></path>
                    <path d="M13.8701072,33.5086487 C6.40645514,31.8643927 0.829818625,25.183089 0.843987445,17.2003349 C0.853785033,11.5291347 3.68483585,6.52160016 8.00120105,3.51944047 C10.6901115,1.65012839 13.9549694,0.554361289 17.4718514,0.561777392 C21.8240908,0.568134052 25.7851804,2.26067044 28.7392286,5.01719063 L28.543729,5.23029009 L28.3459685,5.44399494 C25.4920064,2.78176521 21.6729065,1.15052518 17.4707962,1.14295773 C14.0746507,1.13629837 10.9252536,2.19165528 8.33115368,3.99513052 C4.16341036,6.89452421 1.43048615,11.7230129 1.4203871,17.2007889 C1.40636901,24.9070283 6.79278159,31.3551031 13.9935568,32.9427546 C15.0942028,33.184005 16.2405206,33.3155273 17.4133673,33.3177976 C24.6316274,33.3308136 30.7414035,28.5466702 32.7598574,21.9638948 C33.2146162,20.4749228 33.4615154,18.8963523 33.4643793,17.2583015 C33.473574,12.5899402 31.5004905,8.38788525 28.3459685,5.44399494 L28.543729,5.23029009 L28.7392286,5.01991492 C32.0069504,8.06672258 34.0510288,12.4243643 34.0428893,17.2590583 C34.0401761,18.9549244 33.7831778,20.5914616 33.313195,22.1346165 C31.221636,28.9572802 24.8905852,33.9097237 17.4126136,33.8967077 C16.1962054,33.8944374 15.0113001,33.7595854 13.8701072,33.5086487" id="Fill-3" fill="#3B4394"></path>
                    <g id="Group-7" transform="translate(0.398860, 0.009081)">
                        <mask id="mask-2" fill="white">
                            <use xlink:href="#path-1"></use>
                        </mask>
                        <g id="Clip-6"></g>
                        <path d="M17.0864513,1.4296885 C8.38378122,1.4296885 1.31384152,8.51615357 1.29861757,17.2268966 C1.2907795,21.4533187 2.92320844,25.4301663 5.89444014,28.4247585 C8.86612403,31.4188967 12.8208829,33.0716283 17.0306804,33.0793471 L17.059621,33.72364 L17.059621,33.0793471 C25.7344057,33.0793471 32.8041947,25.9933361 32.8198708,17.2825931 C32.8347933,8.55686647 25.7773643,1.4454288 17.0864513,1.4296885 M17.059621,34.3671762 L17.0284195,34.3671762 C12.4761585,34.3596087 8.19958656,32.571117 4.98673127,29.3333069 C1.77312231,26.0956481 0.00774763135,21.7955189 0.0163393626,17.2243237 C0.0330706288,7.80541845 7.67775194,0.14216216 17.0576615,0.14216216 C26.486559,0.159415951 34.1181266,7.84961237 34.1015461,17.285166 C34.0849655,26.7043739 26.4393798,34.3671762 17.059621,34.3671762" id="Fill-5" fill="#FEFEFE" mask="url(#mask-2)"></path>
                    </g>
                </g>
            </g>
        </g>
    </g>
</svg>